<svg width="25" height="24" viewBox="0 0 25 24" xmlns="http://www.w3.org/2000/svg">
<path fill-rule="evenodd" clip-rule="evenodd" d="M15.252 6.35134C15.477 6.12638 15.7822 6 16.1004 6C16.4186 6 16.7238 6.12638 16.9488 6.35134L21.7488 11.1513C21.9738 11.3764 22.1001 11.6815 22.1001 11.9997C22.1001 12.3179 21.9738 12.6231 21.7488 12.8481L16.9488 17.6481C16.7225 17.8667 16.4193 17.9877 16.1047 17.985C15.7901 17.9822 15.4891 17.856 15.2666 17.6335C15.0441 17.411 14.9179 17.1101 14.9152 16.7954C14.9124 16.4808 15.0334 16.1777 15.252 15.9513L18.0036 13.1997H4.10039C3.78213 13.1997 3.47691 13.0733 3.25186 12.8483C3.02682 12.6232 2.90039 12.318 2.90039 11.9997C2.90039 11.6815 3.02682 11.3763 3.25186 11.1512C3.47691 10.9262 3.78213 10.7997 4.10039 10.7997H18.0036L15.252 8.04814C15.027 7.82311 14.9006 7.51794 14.9006 7.19974C14.9006 6.88155 15.027 6.57638 15.252 6.35134Z" fill="currentColor"/>
</svg>
