<svg width="24" height="24" viewBox="0 0 24 24" xmlns="http://www.w3.org/2000/svg">
<path fill-rule="evenodd" clip-rule="evenodd" d="M9.24801 17.6484C9.02297 17.8734 8.71781 17.9998 8.39961 17.9998C8.08141 17.9998 7.77624 17.8734 7.55121 17.6484L2.75121 12.8484C2.52624 12.6234 2.39986 12.3182 2.39986 12C2.39986 11.6818 2.52624 11.3766 2.75121 11.1516L7.55121 6.35161C7.77753 6.13302 8.08065 6.01207 8.39529 6.0148C8.70993 6.01754 9.0109 6.14374 9.23339 6.36623C9.45588 6.58872 9.58208 6.88969 9.58482 7.20433C9.58755 7.51897 9.4666 7.82209 9.24801 8.04841L6.49641 10.8H20.3996C20.7179 10.8 21.0231 10.9264 21.2481 11.1515C21.4732 11.3765 21.5996 11.6818 21.5996 12C21.5996 12.3183 21.4732 12.6235 21.2481 12.8485C21.0231 13.0736 20.7179 13.2 20.3996 13.2H6.49641L9.24801 15.9516C9.47297 16.1766 9.59935 16.4818 9.59935 16.8C9.59935 17.1182 9.47297 17.4234 9.24801 17.6484Z" fill="currentColor"/>
</svg>
