<svg width="24" height="24" viewBox="0 0 24 24" fill="none" xmlns="http://www.w3.org/2000/svg">
<path fill-rule="evenodd" clip-rule="evenodd" d="M8.29315 11.2931C8.10568 11.4807 8.00036 11.735 8.00036 12.0001C8.00036 12.2653 8.10568 12.5196 8.29315 12.7071L13.9501 18.3641C14.0424 18.4597 14.1527 18.5358 14.2747 18.5882C14.3967 18.6407 14.528 18.6682 14.6607 18.6694C14.7935 18.6705 14.9252 18.6452 15.0481 18.595C15.171 18.5447 15.2826 18.4704 15.3765 18.3765C15.4704 18.2826 15.5447 18.171 15.595 18.0481C15.6452 17.9252 15.6705 17.7935 15.6694 17.6607C15.6682 17.528 15.6407 17.3967 15.5882 17.2747C15.5358 17.1527 15.4597 17.0424 15.3641 16.9501L10.4141 12.0001L15.3641 7.05014C15.5463 6.86154 15.6471 6.60894 15.6448 6.34674C15.6425 6.08455 15.5374 5.83373 15.352 5.64832C15.1666 5.46292 14.9157 5.35775 14.6535 5.35547C14.3914 5.35319 14.1387 5.45399 13.9501 5.63614L8.29315 11.2931Z" fill="#FFAC97"/>
</svg>
