<svg width="812" height="1558" viewBox="0 0 812 1558" fill="none" xmlns="http://www.w3.org/2000/svg">
<g clip-path="url(#clip0_698_29012)">
<path d="M550.954 535.848C559.634 535.848 566.67 528.807 566.67 520.122C566.67 511.436 559.634 504.396 550.954 504.396C542.275 504.396 535.238 511.436 535.238 520.122C535.238 528.807 542.275 535.848 550.954 535.848Z" fill="#B4B6B8"/>
<path d="M267.333 282.449C276.013 282.449 283.049 275.408 283.049 266.723C283.049 258.038 276.013 250.997 267.333 250.997C258.653 250.997 251.617 258.038 251.617 266.723C251.617 275.408 258.653 282.449 267.333 282.449Z" fill="#B4B6B8"/>
<path opacity="0.4" d="M348.317 -5.75706L237.991 34.3968L90.2612 265.779L31.4836 397.983L-53.9062 555.977L154.906 579.88L359.108 566.985L550.947 520.121L527.059 646.873L760.179 677.172L610.563 747.834L752.845 724.874L662.95 802.98L468.386 1000.39L467.444 1264.91L517.001 1308.1L258.212 1402.67L305.884 1553.74L435.278 1450.47L190.215 1448.59L430.668 1561.08L382.997 1591.38L424.277 1505.93L305.884 1553.64L467.444 1264.8L662.95 802.876L610.668 747.73L474.359 721.519L354.603 732.528L335.325 838.626L155.011 579.671L266.489 486.048L363.509 365.273L488.084 153.81L348.317 -5.96674L335.954 -86.5889C335.954 -86.5889 402.065 -45.2818 406.151 -45.2818" stroke="#B4B6B8" stroke-width="2.8125" stroke-linecap="round" stroke-linejoin="round"/>
<path d="M424.279 1505.93L231.602 1500.9L258.214 1402.67C258.214 1402.67 481.171 1389.77 475.722 1389.77C470.274 1389.77 387.609 1197.81 387.609 1197.81L691.345 960.87L769.401 938.853L527.166 646.873L359.215 566.985L266.491 486.153L90.2632 265.779L-21.739 261.166L31.4856 397.982L-51.0754 398.926L-146.523 491.71" stroke="#B4B6B8" stroke-width="2.8125" stroke-linecap="round" stroke-linejoin="round"/>
<path opacity="0.4" d="M-53.7922 555.977L-96.0156 409.935L154.915 579.881L354.508 732.738L405.951 793.86L478.035 722.463L527.069 646.874L615.182 550.421L550.957 520.122L491.341 431.112L363.518 365.378L507.79 369.571L267.337 266.723L219.665 176.665L452.575 113.342" stroke="#B4B6B8" stroke-width="2.8125" stroke-linecap="round" stroke-linejoin="round"/>
<path d="M237.988 34.397L219.652 176.77L90.2578 265.884L267.429 266.828L266.486 486.258L491.328 431.112L359.21 566.985L116.975 707.471L354.704 732.738L356.486 564.574L478.127 722.463L491.433 771.319L610.769 747.939L557.335 822.795L659.698 806.545L796.112 859.07L691.654 960.975L592.434 1196.55L467.754 1265.01C467.754 1265.01 326.101 1299.19 321.282 1299.92C316.462 1300.66 476.031 1389.88 476.031 1389.88" stroke="#B4B6B8" stroke-width="2.8125" stroke-linecap="round" stroke-linejoin="round"/>
<path d="M760.187 677.172L665.996 555.033L610.572 747.939L359.117 566.985L267.336 266.723L363.517 365.377L346.649 194.173L219.664 176.665" stroke="#B4B6B8" stroke-width="2.8125" stroke-linecap="round" stroke-linejoin="round"/>
<path d="M243.75 32.3003L484.308 247.432L346.637 194.174L478.756 297.965L363.505 365.378" stroke="#B4B6B8" stroke-width="2.8125" stroke-linecap="round" stroke-linejoin="round"/>
<path d="M795.911 874.796C804.591 874.796 811.627 867.755 811.627 859.07C811.627 850.385 804.591 843.344 795.911 843.344C787.232 843.344 780.195 850.385 780.195 859.07C780.195 867.755 787.232 874.796 795.911 874.796Z" fill="#B4B6B8"/>
<path d="M468.185 1017.95C476.864 1017.95 483.901 1010.91 483.901 1002.23C483.901 993.541 476.864 986.5 468.185 986.5C459.505 986.5 452.469 993.541 452.469 1002.23C452.469 1010.91 459.505 1017.95 468.185 1017.95Z" fill="#B4B6B8"/>
<path d="M320.974 1315.54C329.653 1315.54 336.69 1308.5 336.69 1299.82C336.69 1291.13 329.653 1284.09 320.974 1284.09C312.294 1284.09 305.258 1291.13 305.258 1299.82C305.258 1308.5 312.294 1315.54 320.974 1315.54Z" fill="#B4B6B8"/>
<path d="M191.435 1465.7C200.114 1465.7 207.151 1458.66 207.151 1449.98C207.151 1441.29 200.114 1434.25 191.435 1434.25C182.755 1434.25 175.719 1441.29 175.719 1449.98C175.719 1458.66 182.755 1465.7 191.435 1465.7Z" fill="#B4B6B8"/>
<path d="M243.759 48.0263C252.439 48.0263 259.475 40.9855 259.475 32.3003C259.475 23.615 252.439 16.5742 243.759 16.5742C235.079 16.5742 228.043 23.615 228.043 32.3003C228.043 40.9855 235.079 48.0263 243.759 48.0263Z" fill="#B4B6B8"/>
<path d="M116.872 723.197C125.552 723.197 132.588 716.156 132.588 707.471C132.588 698.786 125.552 691.745 116.872 691.745C108.193 691.745 101.156 698.786 101.156 707.471C101.156 716.156 108.193 723.197 116.872 723.197Z" fill="#B4B6B8"/>
<path d="M467.442 1280.63C476.122 1280.63 483.158 1273.59 483.158 1264.91C483.158 1256.22 476.122 1249.18 467.442 1249.18C458.763 1249.18 451.727 1256.22 451.727 1264.91C451.727 1273.59 458.763 1280.63 467.442 1280.63Z" fill="#B4B6B8"/>
<path d="M231.606 1511.39C237.393 1511.39 242.083 1506.69 242.083 1500.9C242.083 1495.11 237.393 1490.42 231.606 1490.42C225.82 1490.42 221.129 1495.11 221.129 1500.9C221.129 1506.69 225.82 1511.39 231.606 1511.39Z" fill="#B4B6B8"/>
<path d="M424.286 1516.42C430.072 1516.42 434.763 1511.72 434.763 1505.93C434.763 1500.14 430.072 1495.45 424.286 1495.45C418.499 1495.45 413.809 1500.14 413.809 1505.93C413.809 1511.72 418.499 1516.42 424.286 1516.42Z" fill="#B4B6B8"/>
<path d="M157.942 589.526C163.729 589.526 168.419 584.832 168.419 579.042C168.419 573.251 163.729 568.558 157.942 568.558C152.156 568.558 147.465 573.251 147.465 579.042C147.465 584.832 152.156 589.526 157.942 589.526Z" fill="#B4B6B8"/>
<path d="M31.4851 408.467C37.2715 408.467 41.9624 403.773 41.9624 397.983C41.9624 392.192 37.2715 387.499 31.4851 387.499C25.6987 387.499 21.0078 392.192 21.0078 397.983C21.0078 403.773 25.6987 408.467 31.4851 408.467Z" fill="#B4B6B8"/>
</g>
<defs>
<clipPath id="clip0_698_29012">
<rect width="968.625" height="1683" fill="white" transform="translate(-157 -89)"/>
</clipPath>
</defs>
</svg>
