<svg width="42" height="34" viewBox="0 0 42 34" fill="none" xmlns="http://www.w3.org/2000/svg">
<path d="M39.75 7.64639L33.75 11.1011V3.97607C33.75 2.32139 32.4047 0.976074 30.75 0.976074H3C1.34531 0.976074 0 2.32139 0 3.97607V30.9761C0 32.6308 1.34531 33.9761 3 33.9761H30.75C32.4047 33.9761 33.75 32.6308 33.75 30.9761V23.8511L39.75 27.3058C40.7484 27.8823 42 27.1604 42 26.012V8.94482C42 7.7917 40.7484 7.06982 39.75 7.64639ZM30.375 30.6011H3.375V4.35107H30.375V30.6011ZM38.625 22.7729L33.75 19.9698V14.987L38.625 12.1792V22.7729ZM6.75 10.3511H12C12.2063 10.3511 12.375 10.1823 12.375 9.97607V7.72607C12.375 7.51982 12.2063 7.35107 12 7.35107H6.75C6.54375 7.35107 6.375 7.51982 6.375 7.72607V9.97607C6.375 10.1823 6.54375 10.3511 6.75 10.3511Z" fill="white"/>
</svg>
